# xmcd
#
# Track frame offsets:
#	187
#	20175
#	39997
#	62727
#	79902
#	99985
#	128200
#	137820
#	152750
#	178640
#
# Disc length: 2585 seconds
#
# Revision: 1
# Processed by: cddbd v1.5.1PL0 Copyright (c) Steve Scherf et al.
# Submitted via: CDex 1.50Beta5
#
DISCID=820a170a
DTITLE=Various Artist - Heirs to Jobim: A Musical Tribute
DYEAR=1997
DGENRE=
TTITLE0=New York Voices/Desafinado
TTITLE1=Philip Hamilton/Waters of March (Aguas de Mar将ョo)
TTITLE2=Donato Jr. - Lisa Ono/Garota de Ipanema
TTITLE3=Arto Lindsay/Ligia
TTITLE4=Randy Brecker Session/Corcovado
TTITLE5=Flora Purim/Agua de Beber
TTITLE6=New York Voices/Modinha
TTITLE7=Leon Russell/Meditation (Medita将ョ将ェo)
TTITLE8=Gil Goldstein/Olha Maria
TTITLE9=Antonio Carlos Jobim - Lisa Ono/Estrada Branca
EXTD=
EXTT0=
EXTT1=
EXTT2=
EXTT3=
EXTT4=
EXTT5=
EXTT6=
EXTT7=
EXTT8=
EXTT9=
PLAYORDER=
